<svg width="19" height="25" viewBox="0 0 19 25" fill="none" xmlns="http://www.w3.org/2000/svg">
<path d="M1.5625 9.375H7.42188C7.63672 9.375 7.8125 9.55078 7.8125 9.76562V10.5469C7.8125 10.7617 7.63672 10.9375 7.42188 10.9375H1.5625V14.0625H7.42188C7.63672 14.0625 7.8125 14.2383 7.8125 14.4531V15.2344C7.8125 15.4492 7.63672 15.625 7.42188 15.625H1.5625V18.75H7.42188C7.63672 18.75 7.8125 18.9258 7.8125 19.1406V19.9219C7.8125 20.1367 7.63672 20.3125 7.42188 20.3125H1.5625V23.4375C1.5625 24.2969 2.26562 25 3.125 25H15.625C16.4844 25 17.1875 24.2969 17.1875 23.4375V6.25H1.5625V9.375ZM17.5781 0H1.17188C0.527344 0 0 0.527344 0 1.17188V3.51562C0 4.16016 0.527344 4.6875 1.17188 4.6875H17.5781C18.2227 4.6875 18.75 4.16016 18.75 3.51562V1.17188C18.75 0.527344 18.2227 0 17.5781 0Z" fill="#CCCCCC" fill-opacity="0.91"/>
</svg>
