<svg width="175" height="59" viewBox="0 0 175 59" fill="none" xmlns="http://www.w3.org/2000/svg">
<path d="M11.725 50.9375H8.88125V53.6062H12.075V54.3938H7.91875V47H11.9V47.8313H8.88125V50.15H11.725V50.9375Z" fill="white"/>
<path d="M15.225 50.5437C15.225 49.975 15.225 49.5375 15.1812 49.1H16.0562L16.1 49.975C16.4062 49.45 16.8875 48.9688 17.7625 48.9688C18.5062 48.9688 19.0312 49.4062 19.2937 50.0625C19.4687 49.7708 19.6729 49.5375 19.9062 49.3625C20.2125 49.1 20.5625 48.9688 21.0437 48.9688C21.7437 48.9688 22.7937 49.45 22.7937 51.2875V54.3938H21.8312V51.375C21.8312 50.3688 21.4812 49.7563 20.6937 49.7563C20.1687 49.7563 19.7312 50.15 19.5562 50.6313C19.5125 50.7625 19.5125 50.9375 19.5125 51.1125V54.3938H18.55V51.2C18.55 50.3687 18.2 49.7563 17.4562 49.7563C16.8437 49.7563 16.4062 50.2375 16.275 50.7188C16.2167 50.8646 16.1875 51.025 16.1875 51.2V54.3938H15.225V50.5437Z" fill="white"/>
<path fill-rule="evenodd" clip-rule="evenodd" d="M26.3375 50.85C26.3375 50.15 26.2937 49.625 26.2937 49.1H27.1687L27.2125 50.0188C27.6062 49.3625 28.2187 48.9688 29.0937 48.9688C30.3625 48.9688 31.325 50.0625 31.325 51.6812C31.325 53.5625 30.1875 54.525 28.9187 54.525C28.2187 54.525 27.6062 54.2188 27.3 53.6938V56.5375H26.3375V50.85ZM27.3 52.25C27.3 52.3958 27.3146 52.5271 27.3437 52.6438C27.5187 53.3 28.0875 53.7812 28.7875 53.7812C29.7937 53.7812 30.3625 52.95 30.3625 51.725C30.3625 50.675 29.8375 49.7563 28.7875 49.7563C28.1312 49.7563 27.5187 50.2375 27.3437 50.9375C27.3 51.0688 27.3 51.2 27.3 51.3313V52.25Z" fill="white"/>
<path fill-rule="evenodd" clip-rule="evenodd" d="M39.3313 51.725C39.3313 53.65 37.975 54.525 36.6625 54.525C35.2625 54.525 34.125 53.475 34.125 51.8125C34.125 50.0188 35.3063 48.9688 36.75 48.9688C38.2375 48.9688 39.3313 50.1063 39.3313 51.725V51.725ZM35.1313 51.7688C35.1313 52.9063 35.7875 53.7812 36.7063 53.7812C37.6688 53.7812 38.325 52.95 38.325 51.725C38.325 50.85 37.8875 49.7125 36.75 49.7125C35.6125 49.7125 35.1313 50.7625 35.1313 51.7688Z" fill="white"/>
<path d="M42.875 49.1L43.575 51.8125C43.75 52.3813 43.8812 52.95 43.9687 53.475H44.0125C44.1437 52.95 44.3187 52.3813 44.4937 51.8125L45.325 49.1H46.1562L46.9437 51.7688C47.1625 52.3813 47.3375 52.95 47.425 53.475H47.4687C47.5562 52.95 47.6875 52.3813 47.8625 51.7688L48.6062 49.1H49.5687L47.8625 54.3938H46.9875L46.2 51.9C45.9812 51.2875 45.85 50.7625 45.7187 50.15H45.675C45.5437 50.7625 45.4125 51.3313 45.1937 51.9L44.3625 54.3938H43.4875L41.8687 49.1H42.875Z" fill="white"/>
<path fill-rule="evenodd" clip-rule="evenodd" d="M53.0687 51.9438C53.0687 53.2125 53.9 53.7812 54.8625 53.7812C55.5625 53.7812 55.9562 53.65 56.35 53.475L56.4812 54.175C56.175 54.35 55.5625 54.525 54.7312 54.525C53.1125 54.525 52.15 53.4312 52.15 51.8562C52.15 50.2375 53.0687 48.9688 54.6 48.9688C56.35 48.9688 56.7875 50.5 56.7875 51.4625C56.7875 51.6812 56.7875 51.8125 56.7875 51.9438H53.0687ZM55.8687 51.2437C55.8687 50.6312 55.6062 49.6687 54.5562 49.6687C53.55 49.6687 53.1562 50.5875 53.0687 51.2437H55.8687Z" fill="white"/>
<path d="M59.9813 50.7625C59.9813 50.15 59.9375 49.5813 59.9375 49.1H60.7687L60.8125 50.15H60.8563C61.075 49.45 61.6437 48.9688 62.3 48.9688C62.4312 48.9688 62.475 49.0125 62.5625 49.0125V49.9312C62.475 49.8875 62.3875 49.8875 62.2563 49.8875C61.5563 49.8875 61.075 50.4125 60.9438 51.1125C60.9146 51.2583 60.9 51.4042 60.9 51.55V54.3938H59.9813V50.7625Z" fill="white"/>
<path d="M66.5875 47.6125C66.5875 47.9625 66.3688 48.225 65.975 48.225C65.625 48.225 65.4062 47.9625 65.4062 47.6125C65.4062 47.3063 65.625 47 65.975 47C66.325 47 66.5875 47.2625 66.5875 47.6125ZM65.4937 54.3938V49.1H66.4562V54.3938H65.4937Z" fill="white"/>
<path d="M70.0438 50.5437C70.0438 49.975 70.0438 49.5375 70 49.1H70.8312L70.9188 49.975C71.1813 49.4938 71.7938 48.9688 72.6688 48.9688C73.4125 48.9688 74.55 49.4062 74.55 51.2437V54.3938H73.5875V51.3313C73.5875 50.5 73.2812 49.8 72.3625 49.8C71.7062 49.8 71.225 50.2375 71.05 50.7625C71.0062 50.8937 71.0063 51.0687 71.0063 51.2V54.3938H70.0438V50.5437Z" fill="white"/>
<path fill-rule="evenodd" clip-rule="evenodd" d="M82.6437 49.1C82.6 49.4938 82.6 49.9312 82.6 50.5437V53.65C82.6 54.8312 82.3375 55.575 81.8563 56.0562C81.3313 56.5375 80.5875 56.6688 79.9313 56.6688C79.2313 56.6688 78.575 56.5375 78.1375 56.2313L78.4 55.5312C78.75 55.75 79.275 55.925 79.9313 55.925C80.9375 55.925 81.6375 55.4 81.6375 54.0875V53.475C81.3313 54 80.7625 54.3938 79.9313 54.3938C78.6188 54.3938 77.7 53.2562 77.7 51.8125C77.7 50.0188 78.8813 48.9688 80.0625 48.9688C80.9813 48.9688 81.5063 49.45 81.725 49.8875H81.7687L81.8125 49.1H82.6437ZM81.6375 51.2C81.6375 51.025 81.6375 50.8937 81.5938 50.7625C81.4188 50.1937 80.9375 49.7563 80.2375 49.7563C79.3187 49.7563 78.6625 50.5 78.6625 51.725C78.6625 52.775 79.1875 53.65 80.2375 53.65C80.8062 53.65 81.3312 53.2563 81.55 52.6438C81.5937 52.5125 81.6375 52.2938 81.6375 52.1625V51.2Z" fill="white"/>
<path fill-rule="evenodd" clip-rule="evenodd" d="M90.475 47.1313C90.9562 47.0438 91.525 46.9563 92.3125 46.9563C93.2312 46.9563 93.9312 47.175 94.3687 47.5688C94.7625 47.9188 95.025 48.4438 95.025 49.1C95.025 49.7563 94.8062 50.325 94.4562 50.675C93.9312 51.2438 93.1437 51.5063 92.1812 51.5063C91.9187 51.5063 91.6562 51.5063 91.4375 51.4188V54.3938H90.475V47.1313ZM91.4375 50.7188C91.6417 50.7479 91.9042 50.7625 92.225 50.7625C93.3625 50.7625 94.0625 50.2375 94.0625 49.1875C94.0625 48.1813 93.3625 47.7438 92.3125 47.7438C91.9187 47.7438 91.6125 47.7875 91.4375 47.8313V50.7188Z" fill="white"/>
<path fill-rule="evenodd" clip-rule="evenodd" d="M101.15 54.3938L101.106 53.7375H101.063C100.756 54.1313 100.188 54.525 99.4438 54.525C98.35 54.525 97.825 53.7812 97.825 52.9937C97.825 51.725 98.9625 51.025 101.019 51.025V50.9375C101.019 50.5 100.888 49.7125 99.7938 49.7125C99.3125 49.7125 98.7875 49.8437 98.4375 50.1062L98.2188 49.45C98.6563 49.1875 99.2687 48.9688 99.925 48.9688C101.544 48.9688 101.938 50.1062 101.938 51.1562V53.125C101.938 53.6063 101.981 54.0438 102.025 54.3938H101.15ZM101.019 51.6812C99.9687 51.6812 98.7875 51.8562 98.7875 52.9062C98.7875 53.5187 99.1812 53.825 99.7062 53.825C100.362 53.825 100.8 53.3875 100.975 52.9062C101.004 52.8187 101.019 52.7167 101.019 52.6V51.6812Z" fill="white"/>
<path d="M105.831 49.1L106.969 52.25C107.1 52.6 107.231 52.9938 107.319 53.3H107.362C107.45 52.9938 107.538 52.6 107.669 52.2063L108.719 49.1H109.769L108.325 52.8625C107.625 54.7 107.144 55.6188 106.487 56.1875C106.006 56.5813 105.569 56.7563 105.306 56.8L105.087 56.0125C105.306 55.925 105.613 55.75 105.919 55.5313C106.181 55.3125 106.487 54.9625 106.706 54.4813C106.765 54.3646 106.794 54.2771 106.794 54.2188C106.794 54.175 106.75 54.0875 106.706 53.9563L104.781 49.1H105.831Z" fill="white"/>
<path d="M112.612 50.5437C112.612 49.975 112.569 49.5375 112.569 49.1H113.4L113.444 49.975H113.487C113.75 49.45 114.275 48.9688 115.15 48.9688C115.85 48.9688 116.419 49.4062 116.637 50.0625C116.812 49.7708 117.017 49.5375 117.25 49.3625C117.556 49.1 117.906 48.9688 118.431 48.9688C119.131 48.9688 120.137 49.45 120.137 51.2875V54.3938H119.219V51.375C119.219 50.3688 118.825 49.7563 118.081 49.7563C117.512 49.7563 117.075 50.15 116.944 50.6313C116.9 50.7625 116.856 50.9375 116.856 51.1125V54.3938H115.894V51.2C115.894 50.3687 115.544 49.7563 114.8 49.7563C114.187 49.7563 113.75 50.2375 113.619 50.7188C113.56 50.8646 113.531 51.025 113.531 51.2V54.3938H112.612V50.5437Z" fill="white"/>
<path fill-rule="evenodd" clip-rule="evenodd" d="M126.044 53.7812C126.744 53.7812 127.137 53.65 127.487 53.475L127.662 54.175C127.312 54.35 126.744 54.525 125.912 54.525C124.294 54.525 123.287 53.4312 123.287 51.8562C123.287 50.2375 124.25 48.9688 125.781 48.9688C127.531 48.9688 127.969 50.5 127.969 51.4625C127.969 51.6812 127.969 51.8125 127.925 51.9438H124.206C124.25 53.2125 125.081 53.7812 126.044 53.7812V53.7812ZM127.05 51.2437C127.05 50.6312 126.787 49.6687 125.694 49.6687C124.731 49.6687 124.294 50.5875 124.25 51.2437H127.05Z" fill="white"/>
<path d="M131.119 50.5437C131.119 49.975 131.119 49.5375 131.075 49.1H131.95L131.994 49.975H132.037C132.3 49.4938 132.912 48.9688 133.787 48.9688C134.487 48.9688 135.625 49.4062 135.625 51.2437V54.3938H134.662V51.3313C134.662 50.5 134.356 49.8 133.437 49.8C132.825 49.8 132.344 50.2375 132.169 50.7625C132.125 50.8937 132.081 51.0687 132.081 51.2V54.3938H131.119V50.5437Z" fill="white"/>
<path d="M140.35 47.5688V49.1H141.706V49.8438H140.35V52.6875C140.35 53.3438 140.525 53.6938 141.05 53.6938C141.313 53.6938 141.488 53.6938 141.619 53.65L141.662 54.35C141.487 54.4375 141.181 54.4813 140.787 54.4813C140.35 54.4813 140 54.35 139.781 54.0875C139.475 53.825 139.388 53.3438 139.388 52.7313V49.8438H138.556V49.1H139.388V47.8313L140.35 47.5688Z" fill="white"/>
<path d="M172.463 11.65C172.681 12.1312 172.55 12.6562 172.287 13.0937C171.894 13.7062 171.238 14.1437 170.625 14.5375C169.444 15.2812 168.088 15.8062 166.775 16.2875C163.625 17.3812 160.344 18.125 157.019 18.7812C154.831 19.2187 152.644 19.6562 150.412 20.0062C150.062 20.05 149.669 20.1375 149.275 20.0937C152.731 19.4375 156.231 18.7812 159.644 17.95C162.531 17.25 165.375 16.4625 168.131 15.3687C169.356 14.8875 170.581 14.3187 171.588 13.4437C172.113 13.0062 172.594 12.35 172.463 11.65V11.65Z" fill="white"/>
<path fill-rule="evenodd" clip-rule="evenodd" d="M33.2063 14.975C34.9125 14.8438 36.75 15.1063 38.2812 16.025C39.2438 16.6375 40.0312 17.5563 40.5125 18.5625C41.0375 19.6563 41.2562 20.8813 41.2125 22.0625C41.2125 26.7292 41.2125 31.4104 41.2125 36.1063C41.2562 37.1125 41.125 38.1188 40.775 39.0375C40.3375 40.2188 39.5937 41.3125 38.5437 42.0563C37.4937 42.7563 36.225 43.15 34.9563 43.2813C33.425 43.3688 31.7625 43.2375 30.3625 42.5813C29.0063 41.9688 27.9125 40.8313 27.3438 39.5188C26.8625 38.3813 26.6875 37.1563 26.6875 35.9313V23.9875C26.7313 22.5 26.6 20.9688 27.0813 19.525C27.475 18.0813 28.4375 16.7688 29.75 15.9813C30.8 15.3688 31.9813 15.0625 33.2063 14.975V14.975ZM33.2937 19.1313C32.7687 19.2188 32.2437 19.4375 31.9375 19.875C31.5438 20.4875 31.4563 21.1875 31.4563 21.8875C31.4563 26.7 31.4563 31.5271 31.4563 36.3688C31.4563 37.0688 31.5437 37.8125 31.9812 38.425C32.4187 38.9938 33.2063 39.1688 33.8625 39.1688C34.6063 39.2125 35.3937 39.0813 35.875 38.5125C36.4 37.9 36.4437 37.1125 36.5312 36.3688C36.5312 31.6438 36.5312 26.9333 36.5312 22.2375C36.5312 21.8438 36.4438 21.45 36.4438 21.1C36.3563 20.4438 36.05 19.7438 35.4812 19.3938C34.825 19.0438 33.9937 19.0438 33.2937 19.1313V19.1313Z" fill="white"/>
<path d="M7.96249 15.3687C9.40624 15.325 10.8937 15.325 12.3812 15.325C12.9937 17.1187 13.65 18.8687 14.3062 20.6187C15.575 24.1187 16.9312 27.5312 18.2437 31.0312C18.2437 30.8562 18.2437 20.4875 18.2437 15.325C19.6729 15.325 21.0875 15.325 22.4875 15.325C22.4875 24.5125 22.4875 33.7146 22.4875 42.9312C21.1167 42.9312 19.7458 42.9167 18.375 42.8875C16.4062 37.3312 12.425 25.7812 12.25 25.6937C12.25 31.425 12.25 37.1562 12.25 42.9312C10.8062 42.8875 9.36249 42.9312 7.96249 42.9312C7.96249 34.8812 7.96249 26.8312 7.96249 18.825C7.96249 17.6437 7.96249 16.5062 7.96249 15.325V15.3687Z" fill="white"/>
<path d="M44.275 15.325C45.8208 15.325 47.3667 15.325 48.9125 15.325C50.0937 21.7125 51.2312 28.1437 52.3687 34.4875C52.4125 34.4437 54.4687 23.2437 55.475 17.7312C55.6062 16.9437 55.7812 16.1125 55.8687 15.325C57.4437 15.325 59.0187 15.325 60.5937 15.325C59.8062 18.825 59.1062 22.3687 58.3625 25.8687C57.1667 31.5562 55.9708 37.2437 54.775 42.9312C53.2 42.9312 51.6104 42.9312 50.0062 42.9312C48.5187 35.5375 46.9437 28.1875 45.4125 20.8375C45.325 20.2687 44.4937 16.6812 44.275 15.325V15.325Z" fill="white"/>
<path fill-rule="evenodd" clip-rule="evenodd" d="M66.1937 15.325C68.1479 15.325 70.1167 15.325 72.1 15.325C73.4562 22.7625 74.8125 30.1562 76.1687 37.5937C76.475 39.3437 76.825 41.1375 77.1312 42.9312C75.6146 42.9312 74.0979 42.9312 72.5812 42.9312C72.3625 41.6187 72.2312 40.3062 72.0125 39.0375C71.925 38.2937 71.7937 37.55 71.75 36.8062C70 36.8062 68.25 36.8062 66.5 36.8062C66.2375 38.8479 65.9604 40.8896 65.6687 42.9312C64.1521 42.9312 62.6354 42.9312 61.1187 42.9312C62.5625 34.925 64.05 26.9625 65.4937 18.9562C65.5812 18.6062 66.0625 16.2437 66.1937 15.325V15.325ZM67.2 32.6937C68.4833 32.6937 69.7667 32.6937 71.05 32.6937C70.4812 29.1062 69.2562 21.1875 69.125 20.7937C68.9937 21.1 67.8125 29.0187 67.2 32.6937Z" fill="white"/>
<path d="M80.85 15.325C82.425 15.325 84 15.325 85.575 15.325C85.575 23.1562 85.575 30.9437 85.575 38.775C86.4937 38.775 92.8375 38.775 93.0562 38.775C93.0562 40.1312 93.0562 41.5312 93.0562 42.8875C88.9875 42.9312 84.9187 42.8875 80.85 42.8875C80.85 33.7 80.85 24.5125 80.85 15.325V15.325Z" fill="white"/>
<path d="M94.7625 3.73125C103.425 3.46875 112.087 3.425 120.75 3.6C129.237 3.81875 137.769 4.2125 146.256 4.99999C150.252 5.34999 154.233 5.83124 158.2 6.44374C161.481 7.01249 164.806 7.62499 168 8.67499C169.269 9.11249 170.625 9.59375 171.675 10.5125C172.025 10.8187 172.331 11.1687 172.463 11.65C172.594 12.35 172.113 13.0062 171.588 13.4437C170.581 14.3187 169.356 14.8875 168.131 15.3687C165.375 16.4625 162.531 17.25 159.644 17.95C156.231 18.7812 152.775 19.4375 149.275 20.05C148.575 20.1812 147.875 20.3562 147.175 20.4C150.456 19.6562 153.738 18.8687 156.931 17.7312C158.2 17.2937 159.425 16.7687 160.562 16.1125C161.219 15.7187 161.831 15.2812 162.269 14.7125C162.575 14.275 162.794 13.7062 162.575 13.1812C162.313 12.525 161.744 12.0437 161.131 11.6937C159.994 10.95 158.725 10.4687 157.412 10.075C154.262 9.06874 151.069 8.45624 147.831 7.93124C143.719 7.275 139.606 6.79374 135.494 6.44374C127.05 5.65624 118.562 5.26249 110.075 5.08749C109.287 5.13124 108.456 5.04375 107.669 5.04375C103.09 4.98541 98.5104 4.98541 93.9312 5.04375C92.3125 5.13125 90.6937 5.08749 89.0312 5.17499C87.5437 5.17499 86.1 5.26249 84.6125 5.30624C83.7812 5.39374 82.95 5.34999 82.1625 5.39374C76.825 5.59791 71.4875 5.91874 66.15 6.35624C58.275 6.96874 50.4 7.84374 42.5687 9.02499C39.0687 9.59374 35.5687 10.2062 32.1125 10.9062C31.675 10.9937 31.2375 11.125 30.8 11.1687C38.85 9.1125 47.075 7.75624 55.3 6.70624C68.3812 5.04374 81.55 4.125 94.7187 3.73125" fill="white"/>
<path d="M97.0375 15.325C98.5542 15.325 100.056 15.325 101.544 15.325C101.835 16.1708 102.142 17.0021 102.462 17.8187C103.906 21.7562 107.319 31.075 107.362 31.075C107.362 25.825 107.362 20.575 107.362 15.325C108.792 15.325 110.221 15.325 111.65 15.325C111.65 24.5562 111.65 33.6562 111.65 42.8875C110.25 42.8875 108.85 42.8875 107.45 42.8875C107.275 42.1875 102.331 28.275 101.456 25.825C101.369 26.6562 101.456 38.0312 101.456 42.8875C99.9687 42.8875 98.4958 42.8875 97.0375 42.8875C97.0375 33.7 97.0375 24.5562 97.0375 15.325V15.325Z" fill="white"/>
<path d="M116.637 15.3687C120.881 15.3687 125.606 15.3687 129.85 15.3687C129.85 16.725 129.85 18.0375 129.85 19.4375C128.975 19.4812 127.575 19.4375 126.7 19.4375H121.406C121.362 21.8 121.406 24.1187 121.362 26.4812C122.631 26.4812 126.7 26.4812 127.487 26.4812C127.487 27.8812 127.487 29.2812 127.487 30.6812C126.131 30.6812 122.062 30.6812 121.362 30.6812C121.406 33.35 121.406 36.0625 121.406 38.7312C124.206 38.7312 127.021 38.7312 129.85 38.7312C129.85 40.1312 129.85 41.4875 129.85 42.8875C125.431 42.8875 121.1 42.8875 116.681 42.8875C116.681 33.7 116.637 24.5562 116.637 15.3687V15.3687Z" fill="white"/>
<path d="M132.825 15.325C137.521 15.325 142.217 15.325 146.912 15.325C146.912 16.6958 146.912 18.0667 146.912 19.4375C145.337 19.525 143.806 19.4375 142.275 19.4812C142.275 27.3125 142.275 35.0562 142.275 42.9312C140.671 42.9312 139.067 42.9312 137.462 42.9312C137.462 35.0562 137.462 27.3125 137.462 19.4812C135.931 19.4375 134.4 19.525 132.825 19.4375C132.825 18.0667 132.825 16.6958 132.825 15.325V15.325Z" fill="white"/>
</svg>
