<svg width="20" height="20" viewBox="0 0 20 20" fill="none" xmlns="http://www.w3.org/2000/svg">
<path d="M7.27273 7.917V15.4173C7.27273 15.539 7.23 15.6387 7.14455 15.7165C7.05909 15.7943 6.9503 15.8334 6.81818 15.834H5.90909C5.77636 15.834 5.66758 15.7948 5.58273 15.7165C5.49788 15.6382 5.45515 15.5384 5.45455 15.4173V7.917C5.45455 7.79532 5.49727 7.6956 5.58273 7.61782C5.66818 7.54004 5.77697 7.50087 5.90909 7.50031H6.81818C6.95091 7.50031 7.0597 7.53948 7.14455 7.61782C7.22939 7.69615 7.27212 7.79588 7.27273 7.917ZM10.9091 7.917V15.4173C10.9091 15.539 10.8664 15.6387 10.7809 15.7165C10.6955 15.7943 10.5867 15.8334 10.4545 15.834H9.54546C9.41273 15.834 9.30394 15.7948 9.21909 15.7165C9.13424 15.6382 9.09152 15.5384 9.09091 15.4173V7.917C9.09091 7.79532 9.13364 7.6956 9.21909 7.61782C9.30455 7.54004 9.41333 7.50087 9.54546 7.50031H10.4545C10.5873 7.50031 10.6961 7.53948 10.7809 7.61782C10.8658 7.69615 10.9085 7.79588 10.9091 7.917ZM14.5455 7.917V15.4173C14.5455 15.539 14.5027 15.6387 14.4173 15.7165C14.3318 15.7943 14.223 15.8334 14.0909 15.834H13.1818C13.0491 15.834 12.9403 15.7948 12.8555 15.7165C12.7706 15.6382 12.7279 15.5384 12.7273 15.4173V7.917C12.7273 7.79532 12.77 7.6956 12.8555 7.61782C12.9409 7.54004 13.0497 7.50087 13.1818 7.50031H14.0909C14.2236 7.50031 14.3324 7.53948 14.4173 7.61782C14.5021 7.69615 14.5448 7.79588 14.5455 7.917ZM16.3636 17.3449V5.00104H3.63636V17.3449C3.63636 17.536 3.66939 17.7118 3.73545 17.8724C3.80151 18.033 3.8703 18.1502 3.94182 18.2241C4.01333 18.298 4.06303 18.3349 4.09091 18.3349H15.9091C15.9376 18.3349 15.9873 18.298 16.0582 18.2241C16.1291 18.1502 16.1979 18.033 16.2645 17.8724C16.3312 17.7118 16.3642 17.536 16.3636 17.3449ZM6.81818 3.33347H13.1818L12.5 1.81008C12.4339 1.73174 12.3533 1.68396 12.2582 1.66674H7.75545C7.66091 1.68396 7.5803 1.73174 7.51364 1.81008L6.81818 3.33347ZM20 3.75016V4.58352C20 4.7052 19.9573 4.80492 19.8718 4.8827C19.7864 4.96048 19.6776 4.99965 19.5455 5.00021H18.1818V17.3441C18.1818 18.0646 17.9594 18.6874 17.5146 19.2125C17.0697 19.7375 16.5345 20 15.9091 20H4.09091C3.46606 20 2.93091 19.7461 2.48545 19.2383C2.04 18.7305 1.81758 18.1163 1.81818 17.3957V4.99937H0.454545C0.321818 4.99937 0.21303 4.96021 0.128182 4.88187C0.0433332 4.80353 0.000606035 4.70381 0 4.58269V3.74932C0 3.62765 0.0427273 3.52792 0.128182 3.45014C0.213637 3.37236 0.322424 3.33319 0.454546 3.33264H4.84364L5.83818 1.15838C5.98 0.837257 6.23576 0.563912 6.60545 0.338348C6.97515 0.112783 7.34909 0 7.72727 0H12.2727C12.6515 0 13.0255 0.112783 13.3945 0.338348C13.7636 0.563912 14.0194 0.837257 14.1618 1.15838L15.1564 3.33264H19.5455C19.6782 3.33264 19.787 3.37181 19.8718 3.45014C19.9567 3.52848 19.9994 3.62904 20 3.75016Z" fill="#878686" fill-opacity="0.91"/>
</svg>
