<?xml version="1.0" encoding="UTF-8"?> <svg xmlns="http://www.w3.org/2000/svg" version="1.2" viewBox="0 0 400 134" width="175" height="59"><title>Novalnet-logo-svg</title><style> .s0 { fill: #878787 } .s1 { fill: #ececed } .s2 { fill: #0082c8 } </style><g id="Layer"><path id="Layer" class="s0" d="m26.8 116h-6.5v6.1h7.3v1.8h-9.5v-16.9h9.1v1.9h-6.9v5.3h6.5z"></path><path id="Layer" class="s0" d="m34.8 115.1c0-1.3 0-2.3-0.1-3.3h2l0.1 2c0.7-1.2 1.8-2.3 3.8-2.3 1.7 0 2.9 1 3.5 2.5q0.6-1 1.4-1.6c0.7-0.6 1.5-0.9 2.6-0.9 1.6 0 4 1.1 4 5.3v7.1h-2.2v-6.9c0-2.3-0.8-3.7-2.6-3.7-1.2 0-2.2 0.9-2.6 2-0.1 0.3-0.1 0.7-0.1 1.1v7.5h-2.2v-7.3c0-1.9-0.8-3.3-2.5-3.3-1.4 0-2.4 1.1-2.7 2.2q-0.2 0.5-0.2 1.1v7.3h-2.2z"></path><path id="Layer" fill-rule="evenodd" class="s0" d="m60.2 115.8c0-1.6-0.1-2.8-0.1-4h2l0.1 2.1c0.9-1.5 2.3-2.4 4.3-2.4 2.9 0 5.1 2.5 5.1 6.2 0 4.3-2.6 6.5-5.5 6.5-1.6 0-3-0.7-3.7-1.9v6.5h-2.2zm2.2 3.2q0 0.5 0.1 0.9c0.4 1.5 1.7 2.6 3.3 2.6 2.3 0 3.6-1.9 3.6-4.7 0-2.4-1.2-4.5-3.6-4.5-1.5 0-2.9 1.1-3.3 2.7-0.1 0.3-0.1 0.6-0.1 0.9z"></path><path id="Layer" fill-rule="evenodd" class="s0" d="m89.9 117.8c0 4.4-3.1 6.4-6.1 6.4-3.2 0-5.8-2.4-5.8-6.2 0-4.1 2.7-6.5 6-6.5 3.4 0 5.9 2.6 5.9 6.3zm-9.6 0.1c0 2.6 1.5 4.6 3.6 4.6 2.2 0 3.7-1.9 3.7-4.7 0-2-1-4.6-3.6-4.6-2.6 0-3.7 2.4-3.7 4.7z"></path><path id="Layer" class="s0" d="m98 111.8l1.6 6.2c0.4 1.3 0.7 2.6 0.9 3.8h0.1c0.3-1.2 0.7-2.5 1.1-3.8l1.9-6.2h1.9l1.8 6.1c0.5 1.4 0.9 2.7 1.1 3.9h0.1q0.3-1.8 0.9-3.9l1.7-6.1h2.2l-3.9 12.1h-2l-1.8-5.7c-0.5-1.4-0.8-2.6-1.1-4h-0.1c-0.3 1.4-0.6 2.7-1.1 4l-1.9 5.7h-2l-3.7-12.1z"></path><path id="Layer" fill-rule="evenodd" class="s0" d="m121.3 118.3c0 2.9 1.9 4.2 4.1 4.2 1.6 0 2.5-0.3 3.4-0.7l0.3 1.6c-0.7 0.4-2.1 0.8-4 0.8-3.7 0-5.9-2.5-5.9-6.1 0-3.7 2.1-6.6 5.6-6.6 4 0 5 3.5 5 5.7 0 0.5 0 0.8 0 1.1zm6.4-1.6c0-1.4-0.6-3.6-3-3.6-2.3 0-3.2 2.1-3.4 3.6z"></path><path id="Layer" class="s0" d="m137.1 115.6c0-1.4-0.1-2.7-0.1-3.8h1.9l0.1 2.4h0.1c0.5-1.6 1.8-2.7 3.3-2.7 0.3 0 0.4 0.1 0.6 0.1v2.1c-0.2-0.1-0.4-0.1-0.7-0.1-1.6 0-2.7 1.2-3 2.8q-0.1 0.5-0.1 1v6.5h-2.1z"></path><path id="Layer" class="s0" d="m152.2 108.4c0 0.8-0.5 1.4-1.4 1.4-0.8 0-1.3-0.6-1.3-1.4 0-0.7 0.5-1.4 1.3-1.4 0.8 0 1.4 0.6 1.4 1.4zm-2.5 15.5v-12.1h2.2v12.1z"></path><path id="Layer" class="s0" d="m160.1 115.1c0-1.3 0-2.3-0.1-3.3h1.9l0.2 2c0.6-1.1 2-2.3 4-2.3 1.7 0 4.3 1 4.3 5.2v7.2h-2.2v-7c0-1.9-0.7-3.5-2.8-3.5-1.5 0-2.6 1-3 2.2-0.1 0.3-0.1 0.7-0.1 1v7.3h-2.2z"></path><path id="Layer" fill-rule="evenodd" class="s0" d="m188.9 111.8c-0.1 0.9-0.1 1.9-0.1 3.3v7.1c0 2.7-0.6 4.4-1.7 5.5-1.2 1.1-2.9 1.4-4.4 1.4-1.6 0-3.1-0.3-4.1-1l0.6-1.6c0.8 0.5 2 0.9 3.5 0.9 2.3 0 3.9-1.2 3.9-4.2v-1.4c-0.7 1.2-2 2.1-3.9 2.1-3 0-5.1-2.6-5.1-5.9 0-4.1 2.7-6.5 5.4-6.5 2.1 0 3.3 1.1 3.8 2.1h0.1l0.1-1.8zm-2.3 4.8c0-0.4 0-0.7-0.1-1-0.4-1.3-1.5-2.3-3.1-2.3-2.1 0-3.6 1.7-3.6 4.5 0 2.4 1.2 4.4 3.6 4.4 1.3 0 2.5-0.9 3-2.3 0.1-0.3 0.2-0.8 0.2-1.1z"></path><path id="Layer" fill-rule="evenodd" class="s0" d="m206.8 107.3c1.1-0.2 2.4-0.4 4.2-0.4 2.1 0 3.7 0.5 4.7 1.4 0.9 0.8 1.5 2 1.5 3.5 0 1.5-0.5 2.8-1.3 3.6-1.2 1.3-3 1.9-5.2 1.9-0.6 0-1.2 0-1.7-0.2v6.8h-2.2zm2.2 8.2q0.7 0.1 1.8 0.1c2.6 0 4.2-1.2 4.2-3.6 0-2.3-1.6-3.3-4-3.3-0.9 0-1.6 0.1-2 0.2z"></path><path id="Layer" fill-rule="evenodd" class="s0" d="m231.2 123.9l-0.1-1.5h-0.1c-0.7 0.9-2 1.8-3.7 1.8-2.5 0-3.7-1.7-3.7-3.5 0-2.9 2.6-4.5 7.3-4.5v-0.2c0-1-0.3-2.8-2.8-2.8-1.1 0-2.3 0.3-3.1 0.9l-0.5-1.5c1-0.6 2.4-1.1 3.9-1.1 3.7 0 4.6 2.6 4.6 5v4.5c0 1.1 0.1 2.1 0.2 2.9zm-0.3-6.2c-2.4 0-5.1 0.4-5.1 2.8 0 1.4 0.9 2.1 2.1 2.1 1.5 0 2.5-1 2.9-2.1q0.1-0.3 0.1-0.7z"></path><path id="Layer" class="s0" d="m241.9 111.8l2.6 7.2c0.3 0.8 0.6 1.7 0.8 2.4h0.1c0.2-0.7 0.4-1.6 0.7-2.5l2.4-7.1h2.4l-3.3 8.6c-1.6 4.2-2.7 6.3-4.2 7.6-1.1 0.9-2.1 1.3-2.7 1.4l-0.5-1.8c0.5-0.2 1.2-0.6 1.9-1.1 0.6-0.5 1.3-1.3 1.8-2.4q0.2-0.4 0.2-0.6c0-0.1-0.1-0.3-0.2-0.6l-4.4-11.1z"></path><path id="Layer" class="s0" d="m257.4 115.1c0-1.3-0.1-2.3-0.1-3.3h1.9l0.1 2h0.1c0.6-1.2 1.8-2.3 3.8-2.3 1.6 0 2.9 1 3.4 2.5q0.6-1 1.4-1.6c0.7-0.6 1.5-0.9 2.7-0.9 1.6 0 3.9 1.1 3.9 5.3v7.1h-2.1v-6.9c0-2.3-0.9-3.7-2.6-3.7-1.3 0-2.3 0.9-2.6 2-0.1 0.3-0.2 0.7-0.2 1.1v7.5h-2.2v-7.3c0-1.9-0.8-3.3-2.5-3.3-1.4 0-2.4 1.1-2.7 2.2q-0.2 0.5-0.2 1.1v7.3h-2.1z"></path><path id="Layer" fill-rule="evenodd" class="s0" d="m288.1 122.5c1.6 0 2.5-0.3 3.3-0.7l0.4 1.6c-0.8 0.4-2.1 0.8-4 0.8-3.7 0-6-2.5-6-6.1 0-3.7 2.2-6.6 5.7-6.6 4 0 5 3.5 5 5.7 0 0.5 0 0.8-0.1 1.1h-8.5c0.1 2.9 2 4.2 4.2 4.2zm2.3-5.8c0-1.4-0.6-3.6-3.1-3.6-2.2 0-3.2 2.1-3.3 3.6z"></path><path id="Layer" class="s0" d="m299.7 115.1c0-1.3 0-2.3-0.1-3.3h2l0.1 2h0.1c0.6-1.1 2-2.3 4-2.3 1.6 0 4.2 1 4.2 5.2v7.2h-2.2v-7c0-1.9-0.7-3.5-2.8-3.5-1.4 0-2.5 1-2.9 2.2-0.1 0.3-0.2 0.7-0.2 1v7.3h-2.2z"></path><path id="Layer" class="s0" d="m320.8 108.3v3.5h3.1v1.7h-3.1v6.5c0 1.5 0.4 2.3 1.6 2.3 0.6 0 1 0 1.3-0.1l0.1 1.6c-0.4 0.2-1.1 0.3-2 0.3-1 0-1.8-0.3-2.3-0.9-0.7-0.6-0.9-1.7-0.9-3.1v-6.6h-1.9v-1.7h1.9v-2.9z"></path></g><g id="Layer"><path id="Layer" class="s1" d="m394.2 26.2c0.5 1.1 0.2 2.3-0.4 3.3-0.9 1.4-2.4 2.4-3.8 3.3-2.7 1.7-5.8 2.9-8.8 4-7.2 2.5-14.7 4.2-22.3 5.7-5 1-10 2-15.1 2.8-0.8 0.1-1.7 0.3-2.6 0.2 7.9-1.5 15.9-3 23.7-4.9 6.6-1.6 13.1-3.4 19.4-5.9 2.8-1.1 5.6-2.4 7.9-4.4 1.2-1 2.3-2.5 2-4.1z"></path><path id="Layer" fill-rule="evenodd" class="s2" d="m75.9 33.8c3.9-0.3 8.1 0.3 11.6 2.4 2.2 1.4 4 3.5 5.1 5.8 1.2 2.5 1.7 5.3 1.6 8q0 16 0 32.1c0.1 2.3-0.2 4.6-1 6.7-1 2.7-2.7 5.2-5.1 6.9-2.4 1.6-5.3 2.5-8.2 2.8-3.5 0.2-7.3-0.1-10.5-1.6-3.1-1.4-5.6-4-6.9-7-1.1-2.6-1.5-5.4-1.5-8.2v-27.3c0.1-3.4-0.2-6.9 0.9-10.2 0.9-3.3 3.1-6.3 6.1-8.1 2.4-1.4 5.1-2.1 7.9-2.3zm0.2 9.5c-1.2 0.2-2.4 0.7-3.1 1.7-0.9 1.4-1.1 3-1.1 4.6q0 16.5 0 33.1c0 1.6 0.2 3.3 1.2 4.7 1 1.3 2.8 1.7 4.3 1.7 1.7 0.1 3.5-0.2 4.6-1.5 1.2-1.4 1.3-3.2 1.5-4.9q0-16.2 0-32.3c0-0.9-0.2-1.8-0.2-2.6-0.2-1.5-0.9-3.1-2.2-3.9-1.5-0.8-3.4-0.8-5-0.6z"></path><path id="Layer" class="s2" d="m18.2 34.7c3.3-0.1 6.7-0.1 10.1-0.1 1.4 4.1 2.9 8.1 4.4 12.1 2.9 8 6 15.8 9 23.8 0-0.4 0-24.1 0-35.9q4.9 0 9.7 0 0 31.5 0 63.1-4.7 0-9.4-0.1c-4.5-12.7-13.6-39.1-14-39.3 0 13.1 0 26.2 0 39.4-3.3-0.1-6.6 0-9.8 0 0-18.4 0-36.8 0-55.1 0-2.7 0-5.3 0-8z"></path><path id="Layer" class="s2" d="m101.2 34.6q5.3 0 10.6 0c2.7 14.6 5.3 29.3 7.9 43.8 0.1-0.1 4.8-25.7 7.1-38.3 0.3-1.8 0.7-3.7 0.9-5.5q5.4 0 10.8 0c-1.8 8-3.4 16.1-5.1 24.1q-4.1 19.5-8.2 39-5.4 0-10.9 0c-3.4-16.9-7-33.7-10.5-50.5-0.2-1.3-2.1-9.5-2.6-12.6z"></path><path id="Layer" fill-rule="evenodd" class="s2" d="m151.3 34.6q6.7 0 13.5 0c3.1 17 6.2 33.9 9.3 50.9 0.7 4 1.5 8.1 2.2 12.2q-5.2 0-10.4 0c-0.5-3-0.8-6-1.3-8.9-0.2-1.7-0.5-3.4-0.6-5.1q-6 0-12 0-0.9 7-1.9 14-5.2 0-10.4 0c3.3-18.3 6.7-36.5 10-54.8 0.2-0.8 1.3-6.2 1.6-8.3zm2.3 39.7q4.4 0 8.8 0c-1.3-8.2-4.1-26.3-4.4-27.2-0.3 0.7-3 18.8-4.4 27.2z"></path><path id="Layer" class="s2" d="m184.8 34.6q5.4 0 10.8 0c0 17.9 0 35.7 0 53.6 2.1 0 16.6 0 17.1 0 0 3.1 0 6.3 0 9.4-9.3 0.1-18.6 0-27.9 0q0-31.5 0-63z"></path><path id="Layer" class="s0" d="m216.6 8.1q29.7-0.9 59.4-0.3c19.4 0.5 38.9 1.4 58.3 3.2q13.7 1.2 27.3 3.3c7.5 1.3 15.1 2.7 22.4 5.1 2.9 1 6 2.1 8.4 4.2 0.8 0.7 1.5 1.5 1.8 2.6 0.3 1.6-0.8 3.1-2 4.1-2.3 2-5.1 3.3-7.9 4.4-6.3 2.5-12.8 4.3-19.4 5.9-7.8 1.9-15.7 3.4-23.7 4.8-1.6 0.3-3.2 0.7-4.8 0.8 7.5-1.7 15-3.5 22.3-6.1 2.9-1 5.7-2.2 8.3-3.7 1.5-0.9 2.9-1.9 3.9-3.2 0.7-1 1.2-2.3 0.7-3.5-0.6-1.5-1.9-2.6-3.3-3.4-2.6-1.7-5.5-2.8-8.5-3.7-7.2-2.3-14.5-3.7-21.9-4.9-9.4-1.5-18.8-2.6-28.2-3.4-19.3-1.8-38.7-2.7-58.1-3.1-1.8 0.1-3.7-0.1-5.5-0.1q-15.7-0.2-31.4 0c-3.7 0.2-7.4 0.1-11.2 0.3-3.4 0-6.7 0.2-10.1 0.3-1.9 0.2-3.8 0.1-5.6 0.2q-18.3 0.7-36.6 2.2c-18 1.4-36 3.4-53.9 6.1-8 1.3-16 2.7-23.9 4.3-1 0.2-2 0.5-3 0.6 18.4-4.7 37.2-7.8 56-10.2 29.9-3.8 60-5.9 90.1-6.8"></path><path id="Layer" class="s2" d="m221.8 34.6q5.2 0 10.3 0 1 2.9 2.1 5.7c3.3 9 11.1 30.3 11.2 30.3q0-18 0-36 4.9 0 9.8 0c0 21.1 0 41.9 0 63q-4.8 0-9.6 0c-0.4-1.6-11.7-33.4-13.7-39-0.2 1.9 0 27.9 0 39q-5.1 0-10.1 0c0-21 0-41.9 0-63z"></path><path id="Layer" class="s2" d="m266.6 34.7c9.7 0 20.5 0 30.2 0 0 3.1 0 6.1 0 9.3-2 0.1-5.2 0-7.2 0h-12.1c-0.1 5.4 0 10.7-0.1 16.1 2.9 0 12.2 0 14 0q0 4.8 0 9.6c-3.1 0-12.4 0-14 0 0.1 6.1 0.1 12.3 0.1 18.4q9.6 0 19.3 0c0 3.2 0 6.3 0 9.5-10.1 0-20 0-30.1 0 0-21-0.1-41.9-0.1-62.9z"></path><path id="Layer" class="s2" d="m303.6 34.6q16.1 0 32.2 0 0 4.7 0 9.4c-3.6 0.2-7.1 0-10.6 0.1 0 17.9 0 35.6 0 53.6q-5.5 0-11 0c0-18 0-35.7 0-53.6-3.5-0.1-7 0.1-10.6-0.1q0-4.7 0-9.4z"></path></g></svg> 